<?xml version="1.0" standalone="no"?>
<!DOCTYPE svg PUBLIC "-//W3C//DTD SVG 20010904//EN"
 "http://www.w3.org/TR/2001/REC-SVG-20010904/DTD/svg10.dtd">
<svg version="1.0" xmlns="http://www.w3.org/2000/svg"
 width="1024.000000pt" height="1024.000000pt" viewBox="0 0 1024.000000 1024.000000"
 preserveAspectRatio="xMidYMid meet">
<metadata>
Created by potrace 1.16, written by Peter Selinger 2001-2019
</metadata>
<g transform="translate(0.000000,1024.000000) scale(0.100000,-0.100000)"
fill="#000000" stroke="none">
<path d="M7319 8722 c-40 -10 -64 -31 -81 -72 -11 -25 -65 -164 -120 -310 -55
-146 -131 -344 -168 -440 -37 -96 -135 -353 -218 -570 -84 -217 -216 -564
-295 -770 l-144 -375 -35 -1 c-75 -2 -87 -11 -119 -79 -17 -35 -29 -72 -27
-82 4 -20 221 -141 273 -153 48 -11 82 7 104 54 33 66 26 101 -27 158 l-26 28
38 92 c212 521 312 765 476 1153 67 160 171 407 230 550 59 143 147 354 195
469 75 180 86 215 82 250 -8 62 -81 114 -138 98z"/>
<path d="M3467 8429 c-12 -97 -43 -181 -81 -218 -20 -19 -32 -39 -29 -44 3 -6
1 -7 -5 -3 -6 4 -22 0 -35 -9 -13 -8 -57 -22 -98 -31 -40 -8 -75 -17 -77 -18
-1 -2 23 -6 54 -9 34 -3 84 -19 121 -37 53 -26 68 -40 93 -83 30 -52 59 -157
61 -219 1 -18 7 3 14 48 21 133 60 203 137 246 20 12 35 25 32 29 -3 5 1 7 8
4 7 -3 42 1 77 8 60 13 65 27 10 27 -11 0 -45 9 -76 20 -31 11 -60 17 -66 13
-6 -3 -7 -2 -4 4 3 5 -10 25 -29 44 -51 49 -66 82 -84 189 l-17 95 -6 -56z
m10 -71 c-3 -8 -6 -5 -6 6 -1 11 2 17 5 13 3 -3 4 -12 1 -19z m18 -79 c-5 -14
-4 -19 4 -15 7 5 8 1 4 -10 -5 -14 -7 -14 -15 -1 -4 8 -5 22 -2 31 9 24 16 19
9 -5z m-50 -39 c3 -5 1 -10 -4 -10 -6 0 -11 5 -11 10 0 6 2 10 4 10 3 0 8 -4
11 -10z m79 -6 c3 -8 2 -12 -4 -9 -6 3 -10 10 -10 16 0 14 7 11 14 -7z m12
-59 c1 -8 -2 -13 -7 -9 -5 3 -10 -7 -10 -23 -2 -24 -2 -25 -6 -5 -3 13 1 30 7
38 9 10 9 14 1 14 -6 0 -11 5 -11 12 0 17 23 -7 26 -27z m-141 15 c-3 -5 1
-10 10 -10 9 0 13 5 10 10 -10 16 1 11 16 -7 10 -12 10 -14 1 -9 -7 4 -15 1
-19 -9 -5 -16 -7 -16 -15 -1 -5 9 -15 13 -21 9 -7 -4 -6 0 2 10 15 18 26 23
16 7z m97 -32 c-8 -8 -9 -4 -5 13 4 13 8 18 11 10 2 -7 -1 -18 -6 -23z m83 14
c-3 -3 -11 0 -18 7 -9 10 -8 11 6 5 10 -3 15 -9 12 -12z m-222 -50 c-5 -11 -3
-13 8 -7 8 4 11 4 7 0 -5 -5 -20 -9 -35 -11 -16 -1 -22 0 -15 3 22 8 13 25
-10 18 -22 -7 -22 -6 -4 8 24 18 57 11 49 -11z m131 2 c3 -8 2 -12 -4 -9 -6 3
-10 10 -10 16 0 14 7 11 14 -7z m151 6 c-27 -12 -43 -12 -25 0 8 5 22 9 30 9
10 0 8 -3 -5 -9z m-375 -20 c0 -5 -4 -10 -10 -10 -5 0 -10 5 -10 10 0 6 5 10
10 10 6 0 10 -4 10 -10z m460 0 c18 -12 2 -12 -25 0 -13 6 -15 9 -5 9 8 0 22
-4 30 -9z m-274 -47 c-7 -7 -26 7 -26 19 0 6 6 6 15 -2 9 -7 13 -15 11 -17z
m-41 7 c3 -5 1 -10 -4 -10 -6 0 -11 5 -11 10 0 6 2 10 4 10 3 0 8 -4 11 -10z
m235 6 c0 -2 -7 -7 -16 -10 -8 -3 -12 -2 -9 4 6 10 25 14 25 6z m-249 -33 c13
-17 13 -17 -6 -3 -11 8 -22 16 -24 17 -2 2 0 3 6 3 6 0 17 -8 24 -17z m159 -3
c0 -5 -4 -10 -10 -10 -5 0 -10 5 -10 10 0 6 5 10 10 10 6 0 10 -4 10 -10z
m-87 -53 c-5 -8 -8 -7 -11 1 -3 10 -7 10 -20 0 -15 -12 -15 -11 -4 4 14 18 47
13 35 -5z m65 -5 c6 -18 -15 -14 -22 4 -4 10 -1 14 6 12 6 -2 14 -10 16 -16z
m-30 -36 c-7 -8 -15 -12 -17 -11 -5 6 10 25 20 25 5 0 4 -6 -3 -14z m-11 -68
c-3 -8 -6 -5 -6 6 -1 11 2 17 5 13 3 -3 4 -12 1 -19z"/>
<path d="M5023 8132 c-26 -21 -295 -227 -598 -458 -1252 -956 -1276 -975
-1273 -998 3 -21 7 -21 246 -24 l242 -2 0 -740 0 -740 99 -50 c184 -92 392
-152 631 -181 209 -26 687 -14 868 22 l52 10 -77 56 c-95 67 -240 207 -298
288 -52 73 -107 182 -129 254 -9 30 -16 56 -16 57 0 1 18 -5 40 -12 139 -48
379 -54 534 -14 156 40 342 152 450 271 102 113 131 139 173 155 38 15 45 22
54 60 14 55 78 129 137 157 41 20 47 28 79 107 19 47 57 138 84 203 27 65 49
120 49 122 0 2 -105 84 -232 182 -128 97 -350 268 -493 378 -442 342 -557 426
-573 420 -20 -7 -403 -297 -1008 -762 -87 -67 -162 -119 -166 -115 -4 4 -8 20
-10 36 -3 26 6 36 88 100 519 404 1091 836 1107 836 13 0 114 -76 510 -383
119 -92 330 -253 469 -359 139 -105 270 -205 291 -221 22 -18 41 -27 46 -21
11 13 121 284 120 298 0 6 -88 79 -196 161 -108 83 -255 195 -327 250 -72 55
-221 169 -331 253 -110 84 -227 174 -260 199 -172 134 -318 243 -325 243 -5 0
-30 -17 -57 -38z m5 -1399 l-3 -178 -150 0 c-137 0 -150 2 -149 18 1 9 2 89 3
177 l1 160 150 0 150 0 -2 -177z m412 -3 l0 -180 -150 0 -150 0 0 180 0 180
150 0 150 0 0 -180z m-410 -464 l0 -174 -52 -4 c-29 -2 -99 -2 -155 0 l-103 5
0 173 0 174 155 0 155 0 0 -174z m408 2 l-3 -173 -152 -3 -153 -3 0 176 0 175
155 0 155 0 -2 -172z m-1164 -329 c26 -62 63 -97 129 -121 l62 -22 -35 -9
c-61 -16 -92 -30 -112 -51 -32 -34 -59 -94 -73 -165 -8 -40 -14 -54 -14 -36
-2 52 -29 136 -56 175 -28 40 -75 65 -145 76 -38 6 -47 24 -12 24 63 0 147 53
177 110 8 15 20 57 26 95 l13 68 12 -54 c7 -30 20 -70 28 -90z m310 -513 c17
-58 25 -68 81 -95 l36 -17 -41 -13 c-45 -13 -75 -52 -87 -111 l-6 -34 -14 46
c-14 48 -69 108 -101 108 -9 1 5 12 31 26 51 26 77 67 77 119 0 38 7 30 24
-29z"/>
<path d="M3002 7732 c-7 -37 -24 -86 -37 -108 -13 -23 -21 -45 -17 -49 4 -5 2
-5 -4 -2 -5 3 -36 -7 -69 -24 -34 -17 -74 -29 -96 -29 -22 0 -39 -4 -39 -10 0
-5 13 -10 29 -10 15 0 42 -5 59 -11 22 -7 37 -7 54 1 20 10 21 9 6 -3 -15 -12
-13 -15 20 -33 20 -10 40 -18 45 -16 5 1 6 -1 3 -6 -3 -5 6 -30 19 -56 13 -26
27 -72 31 -102 3 -30 9 -52 13 -49 7 8 32 130 32 164 1 16 4 20 9 11 5 -8 9
-9 14 -1 4 6 5 15 1 20 -6 11 13 25 35 26 8 0 14 7 12 15 -2 8 -1 12 3 8 3 -3
31 3 60 13 30 10 66 19 80 19 14 0 25 5 25 10 0 6 -13 10 -28 10 -41 0 -117
28 -138 51 -24 27 -41 24 -18 -3 l19 -23 -23 19 c-17 15 -25 17 -34 8 -9 -9
-6 -18 11 -36 13 -14 21 -31 18 -38 -4 -9 -6 -8 -6 3 -1 17 -41 59 -41 43 0
-6 4 -15 10 -22 5 -7 3 -6 -7 2 -15 14 -15 17 1 40 9 14 21 26 27 26 5 0 2 13
-7 30 -15 24 -20 27 -33 17 -14 -10 -14 -10 -3 5 10 13 11 25 3 55 -6 21 -11
50 -11 65 0 52 -16 36 -28 -30z m19 -109 c13 -16 12 -17 -3 -4 -10 7 -18 15
-18 17 0 8 8 3 21 -13z m-27 -11 c3 -5 -1 -9 -9 -9 -8 0 -12 4 -9 9 3 4 7 8 9
8 2 0 6 -4 9 -8z m-47 -67 c0 -8 -4 -15 -9 -15 -5 0 -6 -4 -3 -10 3 -5 0 -7
-9 -4 -8 3 -17 13 -20 21 -5 13 -4 14 9 3 12 -10 15 -10 15 4 0 9 4 16 8 16 5
0 9 -7 9 -15z m-53 -13 c3 -5 -1 -9 -9 -9 -8 0 -12 4 -9 9 3 4 7 8 9 8 2 0 6
-4 9 -8z m63 -56 c-2 -5 -9 -11 -15 -12 -9 -2 -9 -1 -1 3 8 4 3 12 -12 25
l-24 19 28 -12 c15 -7 26 -17 24 -23z m43 6 c0 -8 -1 -13 -3 -11 -1 2 -9 12
-16 22 -12 15 -12 17 3 11 9 -3 16 -13 16 -22z m43 -19 c-7 -20 -33 -60 -33
-52 0 9 31 69 35 69 3 0 2 -8 -2 -17z m24 -5 c-3 -8 -6 -5 -6 6 -1 11 2 17 5
13 3 -3 4 -12 1 -19z m-31 -70 c4 -7 3 -8 -5 -4 -8 5 -10 0 -7 -17 3 -16 -1
-24 -10 -24 -10 0 -11 4 -3 14 9 10 8 13 -1 13 -10 0 -10 3 0 15 15 18 17 18
26 3z"/>
<path d="M3710 7656 c0 -44 -38 -114 -70 -131 -15 -8 -49 -19 -75 -26 l-48
-12 52 -14 c89 -22 124 -61 140 -154 5 -30 9 -43 10 -29 3 57 25 106 64 144
22 21 31 34 19 27 -24 -13 -43 -15 -23 -2 11 7 9 10 -8 16 -23 7 -27 20 -9 31
7 4 8 3 4 -4 -9 -15 23 -30 59 -27 17 1 40 3 53 3 35 3 18 18 -27 26 -24 4
-51 18 -72 38 -19 18 -36 32 -39 31 -3 -1 -6 17 -7 38 -3 51 -22 89 -23 45z
m-20 -151 c0 -2 -10 -9 -22 -15 -22 -11 -22 -10 -4 4 21 17 26 19 26 11z m0
-71 c0 -8 -4 -12 -10 -9 -5 3 -10 10 -10 16 0 5 5 9 10 9 6 0 10 -7 10 -16z
m40 -44 c0 -5 -7 -7 -15 -4 -8 4 -12 10 -9 15 6 11 24 2 24 -11z"/>
<path d="M7082 7130 c56 -71 115 -184 148 -281 16 -50 30 -99 30 -109 0 -10 5
-22 10 -25 13 -8 13 0 -5 65 -8 30 -12 64 -9 75 4 14 3 16 -4 7 -7 -11 -11 -8
-17 10 -4 12 -9 31 -10 40 -1 10 -15 36 -30 58 -21 30 -25 43 -17 53 9 10 -5
29 -60 83 -57 55 -64 60 -36 24z"/>
<path d="M7208 6981 c9 -22 21 -39 26 -38 4 1 10 -8 12 -21 2 -14 0 -21 -6
-17 -5 3 -10 2 -10 -4 0 -21 21 -21 29 1 9 20 16 11 12 -14 0 -5 4 -8 9 -8 15
0 12 -30 -3 -36 -15 -6 -11 -60 6 -71 6 -4 8 0 5 8 -4 9 4 19 18 26 21 10 24
9 24 -7 0 -10 7 -23 15 -30 9 -7 13 -20 10 -28 -3 -8 3 -21 15 -29 11 -8 20
-22 20 -31 0 -9 8 -39 19 -67 10 -27 16 -56 14 -63 -3 -7 1 -20 8 -28 12 -14
11 -16 -6 -12 -14 3 -19 11 -18 26 2 12 -2 22 -8 22 -8 0 -9 -13 -5 -39 4 -27
2 -41 -7 -45 -6 -4 -1 -4 11 -2 21 4 23 1 18 -19 -4 -14 0 -27 9 -35 13 -11
14 -8 8 20 -4 21 -2 31 4 27 15 -9 22 -151 12 -227 -5 -36 -9 -83 -9 -105 l-1
-40 -12 40 c-11 35 -14 37 -19 18 -3 -13 -3 -23 2 -23 4 0 11 -12 15 -27 10
-43 21 -12 35 99 21 169 -17 406 -88 542 -14 28 -26 53 -27 56 -4 25 -137 220
-149 220 -3 0 3 -18 12 -39z m109 -154 c-4 -13 -37 -18 -37 -5 0 6 7 7 16 4
12 -5 15 -2 10 9 -3 10 -2 13 5 10 5 -4 8 -12 6 -18z"/>
<path d="M6788 6733 l-36 -88 116 -3 c90 -2 119 1 130 12 8 8 12 19 8 24 -7
11 -172 142 -179 142 -2 0 -20 -39 -39 -87z"/>
<path d="M7314 6755 c1 -21 7 -40 12 -42 14 -5 11 38 -4 62 -11 18 -12 15 -8
-20z"/>
<path d="M7297 6688 c4 -23 4 -23 -12 -3 -17 19 -17 19 -9 -10 4 -16 8 -111 9
-210 1 -113 6 -189 13 -202 9 -16 9 -23 -1 -27 -6 -3 -2 -3 10 0 18 4 22 2 17
-10 -4 -10 -1 -16 9 -16 8 0 18 -6 20 -12 4 -9 6 -7 6 3 1 9 -9 28 -20 43 -23
29 -20 42 6 33 8 -4 15 -16 15 -27 0 -12 4 -19 9 -16 5 3 11 -1 15 -9 3 -8 10
-15 16 -15 6 0 2 10 -10 22 -11 12 -20 28 -20 35 0 7 -9 17 -20 23 -11 6 -18
15 -15 21 4 5 -1 9 -9 9 -9 0 -13 -6 -10 -14 3 -8 1 -17 -5 -20 -7 -5 -11 45
-10 159 0 91 -3 170 -6 175 -3 6 1 7 9 4 9 -3 16 -1 16 5 0 6 -7 11 -15 11 -8
0 -15 4 -15 10 0 5 8 6 17 3 12 -5 15 -2 10 10 -4 12 -1 17 10 17 14 0 14 2
-3 15 -27 20 -33 19 -27 -7z"/>
<path d="M7350 6700 c0 -5 5 -10 10 -10 6 0 10 -7 10 -16 0 -8 -4 -12 -10 -9
-5 3 -10 1 -10 -4 0 -6 7 -11 15 -11 16 0 19 17 9 44 -7 18 -24 22 -24 6z"/>
<path d="M7376 6611 c5 -29 4 -33 -10 -28 -11 4 -15 3 -10 -4 4 -7 0 -9 -14
-5 -19 6 -19 5 -10 -16 l11 -24 24 22 c25 23 29 50 12 74 -7 11 -8 6 -3 -19z"/>
<path d="M7323 6615 c-17 -18 -16 -22 2 -22 8 0 15 9 15 19 0 21 -1 22 -17 3z"/>
<path d="M7360 6521 c0 -7 -4 -9 -10 -6 -6 4 -10 -5 -10 -20 0 -15 -4 -24 -10
-20 -5 3 -10 -3 -10 -13 0 -11 7 -22 15 -26 11 -4 15 2 15 27 0 18 5 38 12 45
6 6 9 15 5 19 -4 3 -7 1 -7 -6z"/>
<path d="M7361 6464 c0 -11 3 -14 6 -6 3 7 2 16 -1 19 -3 4 -6 -2 -5 -13z"/>
<path d="M7385 6420 c0 -15 3 -26 8 -23 4 2 7 13 7 23 0 10 -3 21 -7 23 -5 3
-8 -8 -8 -23z"/>
<path d="M3071 6380 c-12 -17 -19 -36 -15 -42 4 -6 3 -8 -4 -4 -13 8 -56 -60
-46 -75 4 -8 3 -9 -4 -5 -30 18 -144 -280 -159 -415 -22 -201 0 -361 74 -527
35 -79 37 -82 49 -60 16 28 18 18 3 -15 -10 -21 -6 -32 23 -76 19 -28 38 -48
42 -44 4 4 5 1 2 -7 -6 -16 71 -113 83 -106 4 3 13 0 21 -6 12 -8 12 -9 -2 -4
-10 3 -18 1 -18 -4 0 -13 137 -133 217 -189 73 -52 109 -68 63 -30 l-25 21 25
-15 c14 -8 24 -20 23 -26 -2 -6 45 -35 105 -64 123 -62 159 -76 147 -57 -5 9
-4 11 4 6 6 -4 9 -12 6 -17 -4 -5 -5 -9 -3 -9 2 0 48 -16 103 -36 269 -96 620
-153 941 -154 270 0 615 47 920 125 98 26 181 49 184 53 3 4 17 8 32 10 32 3
219 81 198 82 -226 12 -394 54 -503 126 l-37 24 -88 -25 c-128 -37 -354 -72
-548 -86 -185 -13 -404 -3 -604 27 -57 8 -109 13 -117 10 -8 -3 -12 -2 -9 2 3
5 -25 14 -62 21 -37 8 -134 35 -216 62 -82 27 -153 46 -159 42 -5 -3 -7 -2 -4
3 3 6 -40 33 -96 61 -128 63 -238 145 -347 257 -76 77 -86 85 -97 69 -7 -9
-13 -12 -13 -7 0 6 5 15 11 21 8 8 6 18 -6 37 -15 22 -20 24 -34 14 -13 -10
-14 -10 -4 2 9 9 9 18 1 33 -8 16 -12 17 -20 6 -8 -11 -9 -10 -4 3 3 10 -6 40
-20 68 -63 126 -94 265 -95 427 0 178 35 353 97 475 27 54 19 64 -15 18z m-51
-150 c0 -5 -2 -10 -4 -10 -3 0 -8 5 -11 10 -3 6 -1 10 4 10 6 0 11 -4 11 -10z
m-36 -61 c11 2 8 -13 -3 -17 -6 -2 -11 2 -11 10 0 10 -3 9 -10 -2 -11 -17 -13
-9 -4 15 5 12 9 13 14 5 4 -6 10 -11 14 -11z m-36 -74 c-3 -3 -9 2 -12 12 -6
14 -5 15 5 6 7 -7 10 -15 7 -18z m29 -77 c-3 -8 -6 -5 -6 6 -1 11 2 17 5 13 3
-3 4 -12 1 -19z m-28 -92 c15 -18 15 -18 -6 -7 -14 7 -23 21 -22 34 0 15 2 17
6 7 3 -8 13 -24 22 -34z m38 -298 c-3 -8 -6 -5 -6 6 -1 11 2 17 5 13 3 -3 4
-12 1 -19z m-120 -90 c-3 -7 -5 -2 -5 12 0 14 2 19 5 13 2 -7 2 -19 0 -25z
m138 2 c3 -5 1 -10 -4 -10 -6 0 -11 5 -11 10 0 6 2 10 4 10 3 0 8 -4 11 -10z
m-78 -42 c-3 -8 -6 -5 -6 6 -1 11 2 17 5 13 3 -3 4 -12 1 -19z m-2 -58 c3 -5
1 -10 -4 -10 -6 0 -11 5 -11 10 0 6 2 10 4 10 3 0 8 -4 11 -10z m-28 -32 c-3
-8 -6 -5 -6 6 -1 11 2 17 5 13 3 -3 4 -12 1 -19z m166 -28 c3 -11 1 -18 -4
-14 -5 3 -9 12 -9 20 0 20 7 17 13 -6z m-133 -24 c0 -3 -4 -8 -10 -11 -5 -3
-10 -1 -10 4 0 6 5 11 10 11 6 0 10 -2 10 -4z m160 -27 c0 -6 -4 -7 -10 -4 -5
3 -10 11 -10 16 0 6 5 7 10 4 6 -3 10 -11 10 -16z m44 -25 c3 -8 2 -12 -4 -9
-6 3 -10 10 -10 16 0 14 7 11 14 -7z m-30 -200 c5 -14 4 -15 -9 -4 -17 14 -19
20 -6 20 5 0 12 -7 15 -16z m193 -16 c-3 -8 -6 -5 -6 6 -1 11 2 17 5 13 3 -3
4 -12 1 -19z m118 -24 c32 -29 33 -32 8 -15 -34 23 -48 27 -38 11 4 -6 -1 -7
-11 -3 -12 4 -14 8 -6 11 10 3 10 7 1 18 -22 27 6 13 46 -22z m-155 12 c-7 -7
-13 -7 -20 0 -6 6 -3 10 10 10 13 0 16 -4 10 -10z m-110 -28 c0 -12 -28 3 -34
18 -4 11 -2 12 14 1 11 -6 20 -15 20 -19z m200 22 c0 -5 -2 -10 -4 -10 -3 0
-8 5 -11 10 -3 6 -1 10 4 10 6 0 11 -4 11 -10z m-170 -30 c0 -5 -5 -10 -11
-10 -5 0 -7 5 -4 10 3 6 8 10 11 10 2 0 4 -4 4 -10z m267 -50 c-1 -12 -5 -16
-10 -11 -5 5 -6 14 -3 20 11 16 15 13 13 -9z m-237 0 c0 -5 -2 -10 -4 -10 -3
0 -8 5 -11 10 -3 6 -1 10 4 10 6 0 11 -4 11 -10z m267 -15 c0 -8 -4 -15 -9
-15 -4 0 -8 7 -8 15 0 8 4 15 8 15 5 0 9 -7 9 -15z m217 -91 c5 -14 4 -15 -9
-4 -17 14 -19 20 -6 20 5 0 12 -7 15 -16z m-317 -26 c-3 -8 -6 -5 -6 6 -1 11
2 17 5 13 3 -3 4 -12 1 -19z m246 5 c-3 -7 0 -20 7 -28 7 -9 8 -15 2 -15 -5 0
-14 13 -20 28 -7 22 -7 29 3 29 7 0 11 -6 8 -14z m187 -15 c0 -6 -6 -5 -15 2
-8 7 -15 14 -15 16 0 2 7 1 15 -2 8 -4 15 -11 15 -16z m-40 -3 c0 -8 -2 -15
-4 -15 -2 0 -6 7 -10 15 -3 8 -1 15 4 15 6 0 10 -7 10 -15z m120 -25 c-8 -5
-19 -10 -25 -10 -5 0 -3 5 5 10 8 5 20 10 25 10 6 0 3 -5 -5 -10z m-62 -41
c-3 -8 -7 -3 -11 10 -4 17 -3 21 5 13 5 -5 8 -16 6 -23z m-291 -31 c-3 -8 -6
-5 -6 6 -1 11 2 17 5 13 3 -3 4 -12 1 -19z m590 16 c-3 -3 -12 -4 -19 -1 -8 3
-5 6 6 6 11 1 17 -2 13 -5z m1165 -3 c-8 -4 -13 -12 -11 -17 1 -5 -6 -10 -17
-11 -18 -3 -18 -2 1 6 l20 10 -20 1 -20 1 20 9 c26 11 44 12 27 1z m-1237 -19
c-3 -3 -11 0 -18 7 -9 10 -8 11 6 5 10 -3 15 -9 12 -12z m-580 -2 c3 -5 1 -10
-4 -10 -6 0 -11 5 -11 10 0 6 2 10 4 10 3 0 8 -4 11 -10z m669 -6 c3 -8 2 -12
-4 -9 -6 3 -10 10 -10 16 0 14 7 11 14 -7z m-489 -23 c-6 -5 -25 10 -25 20 0
5 6 4 14 -3 8 -7 12 -15 11 -17z m590 19 c3 -5 1 -10 -4 -10 -6 0 -11 5 -11
10 0 6 2 10 4 10 3 0 8 -4 11 -10z m91 -6 c10 -8 13 -12 6 -9 -8 4 -26 11 -40
15 -22 7 -23 8 -6 9 11 1 29 -6 40 -15z m-306 -4 c0 -5 -2 -10 -4 -10 -3 0 -8
5 -11 10 -3 6 -1 10 4 10 6 0 11 -4 11 -10z m1070 -24 c0 -4 -9 -1 -19 6 -11
7 -17 16 -15 20 5 8 34 -15 34 -26z m-560 18 c0 -8 -19 -13 -24 -6 -3 5 1 9 9
9 8 0 15 -2 15 -3z m490 -4 c0 -5 -2 -10 -4 -10 -3 0 -8 5 -11 10 -3 6 -1 10
4 10 6 0 11 -4 11 -10z m115 0 c8 -13 -5 -13 -25 0 -13 8 -13 10 2 10 9 0 20
-4 23 -10z m-485 -4 c0 -2 -7 -7 -16 -10 -8 -3 -12 -2 -9 4 6 10 25 14 25 6z
m87 -2 c-3 -3 -12 -4 -19 -1 -8 3 -5 6 6 6 11 1 17 -2 13 -5z m556 -8 c4 -10
1 -13 -8 -9 -8 3 -12 9 -9 14 7 12 11 11 17 -5z m505 7 c-10 -2 -18 -9 -18
-14 0 -12 27 -12 35 1 3 6 14 9 23 9 15 -1 15 -2 0 -6 -21 -5 -23 -19 -5 -27
6 -3 0 -3 -14 0 -22 5 -26 2 -25 -18 1 -18 -4 -22 -22 -21 -13 2 -21 -1 -17
-7 9 -15 -4 -12 -21 5 -9 8 -12 15 -7 16 4 0 16 2 26 4 9 2 17 -1 17 -6 0 -6
4 -8 10 -4 6 4 6 15 0 31 -15 37 -12 44 13 43 16 -1 18 -2 5 -6z m-1244 -19
c3 -8 2 -12 -4 -9 -6 3 -10 10 -10 16 0 14 7 11 14 -7z m666 12 c0 -3 -4 -8
-10 -11 -5 -3 -10 -1 -10 4 0 6 5 11 10 11 6 0 10 -2 10 -4z m140 -6 c0 -5 -7
-7 -15 -4 -8 4 -15 8 -15 10 0 2 7 4 15 4 8 0 15 -4 15 -10z m160 0 c0 -5 -7
-7 -15 -4 -8 4 -15 8 -15 10 0 2 7 4 15 4 8 0 15 -4 15 -10z m194 -1 c-3 -6 0
-15 7 -20 8 -5 10 -9 4 -9 -5 0 -17 5 -25 10 -13 9 -13 11 0 20 20 13 23 12
14 -1z m-2054 -3 c0 -3 -4 -8 -10 -11 -5 -3 -10 -1 -10 4 0 6 5 11 10 11 6 0
10 -2 10 -4z m730 -6 c0 -5 -2 -10 -4 -10 -3 0 -8 5 -11 10 -3 6 -1 10 4 10 6
0 11 -4 11 -10z m130 -25 c0 -5 -5 -3 -10 5 -5 8 -10 20 -10 25 0 6 5 3 10 -5
5 -8 10 -19 10 -25z m1360 25 c0 -5 -2 -10 -4 -10 -3 0 -8 5 -11 10 -3 6 -1
10 4 10 6 0 11 -4 11 -10z m35 0 c-3 -5 -12 -10 -18 -10 -7 0 -6 4 3 10 19 12
23 12 15 0z m-1688 -22 c-3 -8 -6 -5 -6 6 -1 11 2 17 5 13 3 -3 4 -12 1 -19z
m560 16 c-3 -3 -12 -4 -19 -1 -8 3 -5 6 6 6 11 1 17 -2 13 -5z m-730 -26 c-3
-8 -6 -5 -6 6 -1 11 2 17 5 13 3 -3 4 -12 1 -19z m391 -3 c-3 -3 -9 2 -12 12
-6 14 -5 15 5 6 7 -7 10 -15 7 -18z m392 15 c0 -5 -2 -10 -4 -10 -3 0 -8 5
-11 10 -3 6 -1 10 4 10 6 0 11 -4 11 -10z m555 -10 c3 -5 1 -10 -4 -10 -6 0
-11 5 -11 10 0 6 2 10 4 10 3 0 8 -4 11 -10z m287 3 c-6 -2 -10 -8 -8 -12 3
-4 -5 -8 -16 -8 -20 -2 -20 -1 -2 12 11 8 24 14 29 14 6 0 4 -3 -3 -6z m233
-15 c-9 -6 -19 -7 -22 -4 -4 3 -1 6 6 6 7 0 9 4 6 10 -4 6 1 7 11 3 15 -6 15
-7 -1 -15z m-1825 -3 c0 -8 -2 -15 -4 -15 -2 0 -6 7 -10 15 -3 8 -1 15 4 15 6
0 10 -7 10 -15z m768 1 c-7 -8 -15 -12 -17 -11 -5 6 10 25 20 25 5 0 4 -6 -3
-14z m372 4 c0 -5 -5 -10 -11 -10 -5 0 -7 5 -4 10 3 6 8 10 11 10 2 0 4 -4 4
-10z m235 0 c3 -5 1 -10 -4 -10 -6 0 -11 5 -11 10 0 6 2 10 4 10 3 0 8 -4 11
-10z m-1728 -6 c-3 -3 -12 -4 -19 -1 -8 3 -5 6 6 6 11 1 17 -2 13 -5z m150
-36 c-3 -8 -6 -5 -6 6 -1 11 2 17 5 13 3 -3 4 -12 1 -19z m1106 15 c-7 -2 -19
-2 -25 0 -7 3 -2 5 12 5 14 0 19 -2 13 -5z m262 -3 c3 -5 -1 -10 -10 -10 -9 0
-13 5 -10 10 3 6 8 10 10 10 2 0 7 -4 10 -10z m460 0 c3 -6 -1 -7 -9 -4 -18 7
-21 14 -7 14 6 0 13 -4 16 -10z m-1275 -10 c0 -5 -2 -10 -4 -10 -3 0 -8 5 -11
10 -3 6 -1 10 4 10 6 0 11 -4 11 -10z m60 0 c0 -5 -5 -10 -11 -10 -5 0 -7 5
-4 10 3 6 8 10 11 10 2 0 4 -4 4 -10z m850 0 c0 -5 -2 -10 -4 -10 -3 0 -8 5
-11 10 -3 6 -1 10 4 10 6 0 11 -4 11 -10z m280 -30 c0 -13 -1 -13 -10 0 -5 8
-10 22 -10 30 0 13 1 13 10 0 5 -8 10 -22 10 -30z m17 8 c-3 -7 -5 -2 -5 12 0
14 2 19 5 13 2 -7 2 -19 0 -25z m-1327 2 c0 -5 -5 -10 -11 -10 -5 0 -7 5 -4
10 3 6 8 10 11 10 2 0 4 -4 4 -10z m677 4 c-3 -3 -12 -4 -19 -1 -8 3 -5 6 6 6
11 1 17 -2 13 -5z m687 -14 c-10 -4 -21 -6 -24 -3 -8 7 24 22 34 16 5 -4 1
-10 -10 -13z m-1550 -6 c3 -8 2 -12 -4 -9 -6 3 -10 10 -10 16 0 14 7 11 14 -7z
m106 6 c0 -13 -11 -13 -30 0 -12 8 -11 10 8 10 12 0 22 -4 22 -10z m294 -8 c3
-5 -1 -9 -9 -9 -8 0 -15 4 -15 9 0 4 4 8 9 8 6 0 12 -4 15 -8z m436 -2 c0 -5
-2 -10 -4 -10 -3 0 -8 5 -11 10 -3 6 -1 10 4 10 6 0 11 -4 11 -10z m115 -10
c16 -17 16 -20 3 -15 -9 4 -19 13 -22 21 -7 19 -2 18 19 -6z m35 16 c0 -3 -4
-8 -10 -11 -5 -3 -10 -1 -10 4 0 6 5 11 10 11 6 0 10 -2 10 -4z m354 -35 c-6
-6 -24 19 -24 34 1 6 7 1 15 -9 8 -11 12 -22 9 -25z m-520 3 c3 -8 2 -12 -4
-9 -6 3 -10 10 -10 16 0 14 7 11 14 -7z m-380 -23 c-2 -3 -12 3 -22 13 -16 17
-16 18 5 5 12 -7 20 -15 17 -18z m483 23 c-3 -3 -12 -4 -19 -1 -8 3 -5 6 6 6
11 1 17 -2 13 -5z m-1027 -14 c18 -12 2 -12 -25 0 -13 6 -15 9 -5 9 8 0 22 -4
30 -9z m204 -6 c3 -8 2 -12 -4 -9 -6 3 -10 10 -10 16 0 14 7 11 14 -7z m1056
12 c0 -3 -4 -8 -10 -11 -5 -3 -10 -1 -10 4 0 6 5 11 10 11 6 0 10 -2 10 -4z
m147 -2 c-3 -3 -12 -4 -19 -1 -8 3 -5 6 6 6 11 1 17 -2 13 -5z m-1337 -8 c0
-2 -9 -6 -20 -9 -11 -3 -18 -1 -14 4 5 9 34 13 34 5z m990 0 c0 -2 -7 -6 -15
-10 -8 -3 -15 -1 -15 4 0 6 7 10 15 10 8 0 15 -2 15 -4z m87 -18 c-3 -8 -6 -5
-6 6 -1 11 2 17 5 13 3 -3 4 -12 1 -19z m-622 2 c3 -6 -1 -7 -9 -4 -18 7 -21
14 -7 14 6 0 13 -4 16 -10z m842 4 c-3 -3 -12 -4 -19 -1 -8 3 -5 6 6 6 11 1
17 -2 13 -5z m-797 -14 c0 -5 -2 -10 -4 -10 -3 0 -8 5 -11 10 -3 6 -1 10 4 10
6 0 11 -4 11 -10z m405 0 c3 -5 1 -10 -4 -10 -6 0 -11 5 -11 10 0 6 2 10 4 10
3 0 8 -4 11 -10z m-635 -12 c0 -4 -4 -8 -9 -8 -6 0 -12 4 -15 8 -3 5 1 9 9 9
8 0 15 -4 15 -9z m720 2 c0 -5 -4 -10 -10 -10 -5 0 -10 5 -10 10 0 6 5 10 10
10 6 0 10 -4 10 -10z m-484 -47 c-11 -11 -19 6 -11 24 8 17 8 17 12 0 3 -10 2
-21 -1 -24z m344 26 c0 -7 9 -9 21 -6 15 4 19 3 11 -5 -11 -11 -52 -2 -52 13
0 5 5 9 10 9 6 0 10 -5 10 -11z m-455 -9 c3 -5 1 -10 -4 -10 -6 0 -11 5 -11
10 0 6 2 10 4 10 3 0 8 -4 11 -10z m80 0 c3 -5 1 -10 -4 -10 -6 0 -11 5 -11
10 0 6 2 10 4 10 3 0 8 -4 11 -10z m175 -5 c0 -8 -4 -15 -8 -15 -5 0 -9 7 -9
15 0 8 4 15 9 15 4 0 8 -7 8 -15z m147 9 c-3 -3 -12 -4 -19 -1 -8 3 -5 6 6 6
11 1 17 -2 13 -5z m-204 -21 c-7 -2 -19 -2 -25 0 -7 3 -2 5 12 5 14 0 19 -2
13 -5z"/>
<path d="M7314 6396 c-3 -8 -4 -23 -1 -33 3 -12 5 -9 6 9 1 16 8 28 19 31 16
4 16 5 -1 6 -10 0 -20 -5 -23 -13z"/>
<path d="M7340 6374 c0 -9 5 -12 11 -8 6 3 15 0 21 -7 7 -11 8 -10 6 5 -4 23
-38 31 -38 10z"/>
<path d="M7387 6350 c-3 -11 -1 -20 4 -20 5 0 9 9 9 20 0 11 -2 20 -4 20 -2 0
-6 -9 -9 -20z"/>
<path d="M7430 6332 c0 -13 -4 -20 -10 -17 -5 3 -10 1 -10 -4 0 -14 27 -14 35
-1 3 5 1 18 -4 27 -9 16 -10 15 -11 -5z"/>
<path d="M7356 6331 c-4 -6 -3 -11 2 -11 6 0 13 -12 16 -26 8 -31 36 -64 36
-42 -1 23 -47 90 -54 79z"/>
<path d="M7420 6280 c0 -5 5 -10 10 -10 6 0 10 5 10 10 0 6 -4 10 -10 10 -5 0
-10 -4 -10 -10z"/>
<path d="M7261 6220 c-41 -191 -209 -476 -375 -639 -46 -46 -64 -71 -62 -85 2
-12 1 -15 -1 -8 -7 20 -17 15 -90 -46 -38 -32 -79 -65 -89 -73 -13 -9 -25 -37
-33 -74 -20 -91 -58 -199 -111 -312 l-48 -101 47 27 c89 53 192 123 188 127
-7 7 -37 -7 -37 -17 0 -5 -5 -9 -12 -9 -9 0 -9 3 -1 11 12 12 6 42 -6 35 -3
-2 -7 6 -7 19 -1 16 2 22 12 18 8 -3 14 -10 13 -17 -3 -21 1 -36 9 -36 13 0 6
51 -9 61 -11 8 -10 9 6 7 15 -3 19 -10 17 -30 -1 -16 3 -28 14 -32 34 -13 37
8 18 107 -6 31 2 34 34 11 12 -8 22 -12 23 -7 0 4 5 -3 10 -16 6 -16 6 -28 -1
-35 -7 -7 -10 -3 -10 12 0 16 -6 22 -22 22 -21 -1 -22 -2 -5 -14 9 -7 17 -17
17 -21 0 -4 -6 -2 -14 4 -11 10 -14 7 -12 -14 0 -14 6 -25 11 -25 16 0 150
119 147 131 -1 6 1 8 6 5 20 -12 259 245 246 265 -4 8 -3 9 4 5 13 -8 97 115
167 246 47 88 51 98 35 98 -5 0 -10 -9 -10 -21 0 -22 -21 -22 -28 1 -3 7 0 10
7 6 6 -4 11 -3 11 3 0 5 -4 13 -10 16 -5 3 -10 0 -10 -7 0 -9 -3 -9 -10 2 -15
23 -12 -2 5 -33 18 -34 5 -77 -21 -73 -10 2 -20 8 -22 15 -3 9 2 11 17 6 12
-4 21 -2 21 4 0 6 -11 11 -24 11 -17 0 -28 8 -35 28 -8 20 -10 21 -7 4 2 -12
0 -20 -5 -16 -5 3 -9 0 -9 -5 0 -6 7 -11 15 -11 9 0 15 -9 15 -25 0 -18 5 -25
20 -25 11 0 20 -4 20 -9 0 -5 -16 -9 -35 -8 -27 1 -32 4 -23 14 8 10 8 17 0
25 -9 9 -12 9 -12 -1 0 -7 -7 -19 -15 -28 -14 -13 -16 -11 -21 17 -4 20 -10
28 -16 22 -12 -12 20 -65 34 -56 5 3 15 0 23 -6 11 -9 15 -9 15 -1 0 6 4 11 8
11 7 0 8 -25 3 -49 -1 -2 -8 2 -16 9 -9 8 -15 9 -15 2 0 -6 5 -14 10 -17 14
-9 12 -25 -2 -22 -8 1 -12 -6 -10 -18 2 -17 1 -18 -9 -5 -9 13 -10 13 -6 -2 9
-25 -5 -30 -17 -6 -6 11 -20 26 -31 32 -11 6 -23 15 -26 20 -4 5 -12 5 -18 1
-14 -8 4 -36 21 -32 6 1 16 -20 23 -46 8 -33 9 -47 1 -44 -6 2 -11 10 -12 18
0 8 -2 26 -2 41 -2 20 -6 25 -19 22 -12 -3 -22 4 -30 21 -10 23 -9 26 13 31
13 3 24 10 24 16 0 5 5 6 11 2 8 -5 8 -9 -1 -14 -8 -5 -7 -9 4 -13 12 -5 16 0
16 18 0 14 -4 26 -10 26 -5 1 -15 2 -22 3 -6 0 -13 8 -15 16 -4 12 -3 12 5 1
8 -11 10 -11 15 0 4 10 6 10 6 2 1 -7 6 -13 11 -13 6 0 8 10 4 24 -3 13 -1 33
5 44 12 22 5 52 -11 52 -6 0 -16 7 -23 16 -10 14 -13 13 -24 -15 -8 -17 -18
-31 -23 -31 -13 0 28 65 42 66 23 3 24 5 11 13 -9 6 -10 11 -2 15 6 4 14 -1
18 -10 4 -10 2 -19 -5 -22 -7 -2 -9 -8 -6 -14 4 -5 13 -3 24 7 16 15 19 13 35
-22 l18 -38 9 27 c7 20 14 25 26 21 14 -6 15 -4 5 9 -7 8 -10 18 -6 21 3 4 -6
7 -20 7 -15 0 -27 -6 -28 -12 -1 -7 -5 5 -10 26 -10 41 -3 67 8 28 3 -15 13
-22 29 -22 29 0 32 20 4 27 -21 6 -27 19 -10 25 6 2 11 36 13 77 2 55 7 76 20
86 10 7 15 19 11 28 -3 8 2 42 11 75 10 33 15 66 13 74 -3 7 -10 -12 -17 -42z
m-49 -239 c-7 -55 -25 -78 -35 -42 -3 14 -1 18 9 14 9 -3 14 1 14 12 0 10 -5
13 -12 9 -6 -4 -8 -3 -5 3 4 6 11 23 17 38 15 40 19 28 12 -34z m-47 -86 c0
-47 -9 -60 -18 -24 -5 18 7 69 15 69 2 0 3 -20 3 -45z m-59 -120 c-3 -8 1 -21
10 -29 8 -8 10 -17 5 -20 -5 -4 -12 0 -14 6 -4 10 -8 10 -14 2 -5 -8 -13 -5
-26 12 -13 17 -14 22 -3 18 8 -3 20 2 27 10 18 19 23 20 15 1z m38 -17 c-3 -4
-11 -8 -17 -8 -7 0 -6 4 3 10 11 7 11 10 2 10 -7 0 -10 5 -6 11 4 8 9 7 15 -2
4 -7 5 -17 3 -21z m-60 -77 c-3 -3 -9 1 -14 9 -5 8 -12 11 -15 8 -11 -11 5
-28 26 -28 10 0 19 -5 19 -11 0 -7 -11 -8 -30 -4 -29 6 -43 -7 -20 -18 6 -3 5
-4 -2 -3 -7 2 -12 11 -12 20 1 9 -3 16 -8 16 -5 0 -2 7 6 16 11 10 14 24 10
42 -6 26 -5 26 20 -7 14 -19 23 -37 20 -40z m-68 14 c-9 -14 -14 -25 -10 -25
4 0 1 -7 -6 -15 -10 -12 -10 -15 3 -15 9 0 18 -12 22 -30 4 -16 10 -30 15 -30
4 0 10 -9 13 -20 3 -11 1 -20 -4 -20 -5 0 -9 -5 -9 -12 0 -9 3 -9 12 0 9 9 16
8 30 -5 18 -16 18 -16 12 0 -3 10 -1 17 5 17 6 0 12 -8 12 -17 1 -10 3 -32 5
-49 2 -20 -2 -37 -11 -44 -13 -10 -15 -9 -15 10 0 16 -4 20 -15 16 -9 -3 -15
0 -15 9 0 7 6 15 14 17 13 3 13 6 0 22 -14 19 -14 19 -14 -3 0 -18 -4 -21 -20
-16 -23 7 -28 -10 -5 -19 8 -3 14 -16 14 -28 l-2 -23 -4 23 c-2 12 -8 22 -13
22 -5 0 -25 16 -45 37 -22 23 -35 31 -35 21 0 -9 7 -21 15 -28 13 -11 13 -15
3 -21 -9 -6 -7 -9 8 -9 11 0 29 -7 40 -15 18 -15 18 -15 0 -8 -13 4 -17 3 -12
-5 4 -7 3 -12 -3 -12 -16 0 -22 18 -9 24 7 3 1 3 -14 0 -26 -6 -28 -4 -28 23
0 16 -7 38 -15 49 -17 23 -19 9 -4 -34 8 -24 7 -37 -6 -61 l-15 -31 24 12 c14
6 23 15 20 19 -3 5 0 9 6 9 7 0 10 -7 7 -14 -4 -9 -1 -13 6 -11 15 6 44 -12
34 -21 -3 -4 -13 -1 -22 6 -12 10 -15 10 -15 0 0 -10 -3 -10 -15 0 -10 9 -15
9 -15 1 0 -19 -32 -12 -37 8 -3 11 -10 22 -17 24 -6 2 0 2 14 0 23 -4 24 -4 7
15 -9 10 -17 25 -17 34 0 8 -11 21 -25 28 -24 13 -25 36 0 26 13 -5 35 12 35
27 0 4 -6 5 -12 1 -12 -7 62 78 87 101 6 6 19 22 28 38 10 15 20 27 23 27 4 0
-1 -11 -10 -25z m67 -115 c4 -14 10 -18 23 -13 11 4 15 3 11 -4 -4 -6 -16 -13
-27 -16 -18 -5 -22 1 -19 30 0 4 -8 10 -18 14 -16 7 -16 8 3 8 14 1 24 -7 27
-19z m97 -46 c0 -8 -4 -14 -10 -14 -5 0 -10 4 -10 9 0 5 -3 18 -7 28 -6 16 -5
16 10 4 9 -7 17 -20 17 -27z m-325 -61 c-4 -10 -8 -24 -8 -30 0 -16 -3 -16
-28 -3 -10 6 -19 18 -19 28 1 16 2 15 11 -1 8 -14 14 -16 25 -6 7 6 11 15 8
20 -3 5 0 9 6 9 8 0 9 -7 5 -17z m16 -20 c-12 -20 -14 -14 -5 12 4 9 9 14 11
11 3 -2 0 -13 -6 -23z m-63 -28 c4 -4 1 -5 -5 -1 -9 5 -13 0 -14 -16 l0 -23
-9 23 c-5 12 -14 22 -20 22 -14 0 -3 -36 21 -72 22 -30 26 -52 5 -25 -13 16
-14 16 -20 1 -4 -10 -2 -22 4 -28 5 -5 10 -18 10 -28 0 -10 7 -21 15 -24 8 -4
15 -12 15 -20 0 -16 -30 -7 -30 10 -1 6 -6 24 -13 40 l-13 29 -1 -44 c-2 -31
1 -39 7 -29 9 13 10 13 10 0 0 -39 -17 -39 -30 2 -14 39 -15 40 -22 17 -6 -19
-7 -17 -3 8 5 37 -2 63 -17 63 -6 0 -7 -7 -4 -16 4 -9 2 -13 -5 -8 -6 4 -16 0
-21 -7 -7 -11 -11 -11 -15 -1 -2 6 -9 10 -14 6 -5 -3 -9 5 -9 17 0 22 0 22 14
3 8 -10 18 -15 22 -11 5 4 3 12 -4 16 -14 8 -6 41 10 41 6 0 6 -6 -1 -14 -9
-11 -9 -16 0 -21 6 -4 15 -2 19 5 10 16 30 4 30 -18 0 -15 2 -15 10 -2 9 13
10 13 10 0 1 -12 3 -11 11 3 13 21 3 38 -17 30 -8 -3 -23 2 -34 12 -19 17 -19
18 18 45 35 26 74 33 90 15z m272 -5 c0 -5 -4 -10 -10 -10 -5 0 -10 5 -10 10
0 6 5 10 10 10 6 0 10 -4 10 -10z m-30 -29 c7 -14 2 -24 -23 -47 -17 -16 -29
-25 -24 -20 4 5 -2 20 -14 32 l-21 23 42 -4 c40 -4 41 -3 26 14 -9 10 -16 21
-16 25 0 11 19 -3 30 -23z m-170 -6 l24 -25 -32 16 c-18 8 -30 20 -27 25 8 12
8 12 35 -16z m-58 3 c-19 -19 -14 -30 11 -24 12 3 17 3 10 0 -9 -4 -9 -10 -1
-23 7 -12 8 -23 1 -36 -9 -16 -11 -15 -17 13 -4 17 -14 36 -22 43 -11 9 -12
15 -3 25 6 8 16 14 22 14 7 0 7 -4 -1 -12z m153 -48 c11 -21 12 -31 3 -36 -6
-4 -8 -3 -5 2 3 6 2 16 -4 24 -6 11 -9 3 -9 -25 0 -22 -4 -35 -8 -29 -4 6 -17
14 -29 18 -13 4 -23 12 -23 17 0 12 14 11 27 -2 8 -8 13 -8 17 0 4 6 2 11 -4
11 -6 0 -17 6 -24 13 -10 10 -10 15 -1 24 7 7 16 9 19 6 3 -4 6 -1 6 6 0 18
18 3 35 -29z m-95 -20 c0 -11 -1 -23 -2 -26 -2 -3 8 -12 22 -19 14 -8 19 -14
11 -15 -10 0 -11 -3 -2 -14 10 -11 9 -14 -3 -12 -22 3 -29 12 -32 41 -1 14 -5
34 -9 45 -4 11 -2 20 4 20 6 0 11 -9 11 -20z m-64 -35 c17 -16 14 -18 -10 -9
-9 3 -16 10 -16 15 0 13 9 11 26 -6z m-116 -5 c0 -5 -4 -10 -10 -10 -5 0 -10
5 -10 10 0 6 5 10 10 10 6 0 10 -4 10 -10z m-34 -16 c-4 -12 -2 -15 9 -10 9 3
15 0 15 -10 0 -11 -6 -14 -16 -10 -9 3 -19 6 -24 6 -4 0 -6 9 -3 20 3 11 10
20 15 20 6 0 7 -7 4 -16z m184 -16 c0 -7 3 -24 7 -38 6 -23 6 -24 -10 -8 -18
18 -23 58 -7 58 6 0 10 -6 10 -12z m-180 -60 c0 -6 -7 -5 -15 2 -8 7 -15 17
-15 22 0 6 7 5 15 -2 8 -7 15 -17 15 -22z m40 22 c0 -5 -2 -10 -4 -10 -3 0 -8
5 -11 10 -3 6 -1 10 4 10 6 0 11 -4 11 -10z m-79 -22 c21 -26 24 -38 9 -38 -5
0 -16 14 -25 30 -18 35 -11 39 16 8z m181 8 c7 4 8 2 4 -4 -11 -18 -26 -14
-25 6 0 10 3 12 6 4 2 -6 10 -9 15 -6z m-32 -16 c0 -5 -4 -10 -10 -10 -5 0
-10 5 -10 10 0 6 5 10 10 10 6 0 10 -4 10 -10z m-188 -32 c-8 -8 -9 -4 -5 13
4 13 8 18 11 10 2 -7 -1 -18 -6 -23z m85 0 c-3 -8 -6 -5 -6 6 -1 11 2 17 5 13
3 -3 4 -12 1 -19z m139 5 c-1 -7 -8 -19 -16 -26 -12 -10 -12 -9 -1 6 9 11 10
17 2 17 -6 0 -11 4 -11 8 0 5 6 9 14 9 7 0 13 -6 12 -14z m-216 -39 c0 -2 -7
-4 -15 -4 -8 0 -15 4 -15 10 0 5 7 7 15 4 8 -4 15 -8 15 -10z m30 6 c0 -5 -2
-10 -4 -10 -3 0 -8 5 -11 10 -3 6 -1 10 4 10 6 0 11 -4 11 -10z m65 0 c3 -5 1
-10 -4 -10 -6 0 -11 5 -11 10 0 6 2 10 4 10 3 0 8 -4 11 -10z m-89 -45 c-1
-29 -16 -35 -16 -7 0 16 8 32 16 32 1 0 1 -11 0 -25z m-11 -37 c6 -5 5 -8 -3
-8 -7 0 -17 -10 -22 -22 -6 -17 -9 -18 -9 -6 -1 9 4 20 9 23 6 4 5 12 -4 21
-9 8 -12 22 -9 31 5 14 8 13 17 -8 6 -13 15 -27 21 -31z m-45 -14 c0 -14 -4
-23 -9 -20 -5 3 -7 15 -4 26 7 28 13 25 13 -6z m64 -25 c-8 -14 -21 -11 -21 5
0 8 6 12 14 9 7 -3 10 -9 7 -14z"/>
<path d="M6964 5624 c3 -8 2 -13 -2 -10 -5 3 -15 -3 -23 -13 -13 -14 -13 -19
-2 -30 20 -18 7 -27 -14 -10 -9 8 -14 9 -10 2 4 -6 0 -19 -9 -28 -15 -14 -15
-21 -4 -56 16 -48 32 -53 18 -5 -18 58 0 75 55 51 10 -4 23 -2 32 5 12 10 15
10 16 -1 0 -8 4 -5 9 6 15 34 11 37 -17 17 l-28 -20 0 43 c0 34 3 41 13 33 8
-7 12 -7 12 0 0 11 -31 32 -45 32 -4 0 -4 -7 -1 -16z m5 -51 c-1 -17 -3 -21
-6 -10 -2 9 -9 17 -14 17 -6 0 -7 5 -4 10 12 19 25 10 24 -17z"/>
<path d="M7000 5580 c0 -5 5 -10 10 -10 6 0 10 5 10 10 0 6 -4 10 -10 10 -5 0
-10 -4 -10 -10z"/>
<path d="M7013 5503 c9 -2 23 -2 30 0 6 3 -1 5 -18 5 -16 0 -22 -2 -12 -5z"/>
<path d="M6714 5391 c4 -5 3 -11 -1 -14 -5 -2 -2 -2 5 -1 6 2 12 -2 12 -8 0
-9 3 -9 12 0 10 10 10 15 -2 22 -19 12 -33 13 -26 1z"/>
<path d="M6730 5298 c0 -9 5 -20 10 -23 13 -8 13 5 0 25 -8 13 -10 13 -10 -2z"/>
<path d="M7005 5361 c-3 -5 -1 -12 5 -16 5 -3 10 1 10 9 0 18 -6 21 -15 7z"/>
<path d="M6935 5350 c-16 -7 -17 -9 -3 -9 9 -1 20 4 23 9 7 11 7 11 -20 0z"/>
<path d="M6885 5261 c-3 -5 -2 -12 3 -15 5 -3 9 1 9 9 0 17 -3 19 -12 6z"/>
<path d="M7426 6224 c-8 -22 -7 -34 3 -34 5 0 9 11 9 25 0 29 -3 31 -12 9z"/>
<path d="M7279 6203 c-7 -42 -5 -51 10 -45 15 5 15 4 0 -14 -25 -29 -19 -51
18 -76 33 -23 42 -38 23 -38 -22 0 -8 -19 22 -29 30 -11 30 -10 15 7 -10 10
-17 25 -17 33 0 8 -5 20 -11 26 -9 9 -7 12 10 10 17 -1 21 -6 17 -21 -3 -11 1
-24 8 -30 8 -6 17 -22 21 -36 5 -20 4 -22 -5 -10 -9 12 -10 9 -6 -15 5 -20 4
-25 -3 -16 -6 10 -9 4 -9 -22 0 -19 -5 -43 -11 -54 -11 -17 -12 -17 -9 2 2 11
-3 26 -12 33 -13 12 -12 13 5 7 16 -5 17 -4 8 6 -10 10 -16 9 -29 -2 -14 -11
-18 -11 -29 4 -8 12 -15 14 -20 8 -14 -24 -25 -9 -25 34 l0 45 28 -13 c15 -6
29 -14 32 -17 3 -3 11 -5 18 -5 6 0 11 -4 10 -10 -2 -5 -9 -9 -15 -9 -7 1 -13
-4 -13 -12 0 -18 10 -18 38 2 30 21 28 44 -3 44 -14 0 -25 5 -25 11 0 5 -8 9
-17 8 -37 -3 -43 1 -43 36 0 50 -20 43 -21 -7 -1 -24 -1 -50 0 -59 1 -9 -3
-28 -8 -42 -9 -23 -7 -28 19 -44 17 -9 30 -23 30 -29 0 -6 11 -19 25 -28 23
-15 25 -15 25 -1 0 9 -4 14 -9 11 -12 -8 -28 13 -37 49 -7 27 -6 29 10 16 9
-8 15 -20 12 -28 -3 -8 4 -17 18 -23 13 -5 26 -14 28 -21 5 -15 42 73 67 163
15 51 16 68 7 71 -9 4 -11 -2 -9 -17 4 -17 0 -22 -16 -22 -23 0 -28 11 -8 20
8 3 7 8 -5 16 -10 6 -18 16 -18 23 0 7 4 6 10 -3 5 -8 12 -11 17 -7 4 5 1 12
-6 17 -11 6 -12 17 -4 49 6 22 7 38 2 35 -5 -3 -9 -11 -9 -17 0 -7 -4 -28 -10
-47 -7 -27 -15 -35 -34 -36 -14 -1 -33 7 -42 17 -23 25 -10 37 16 14 22 -20
25 -10 10 29 -12 32 -4 33 21 4 10 -13 18 -17 19 -10 0 6 -6 12 -12 13 -7 0
-5 4 6 8 17 7 16 8 -7 24 -22 14 -27 14 -37 2 -15 -18 -31 -10 -23 10 3 8 2
15 -1 15 -3 0 -7 -3 -7 -7z m61 -313 c0 -5 -4 -10 -10 -10 -5 0 -10 5 -10 10
0 6 5 10 10 10 6 0 10 -4 10 -10z"/>
<path d="M7270 6054 c0 -8 5 -12 10 -9 6 3 10 1 10 -4 0 -6 5 -11 10 -11 17 0
11 14 -10 28 -17 10 -20 10 -20 -4z"/>
<path d="M7260 5977 c0 -8 7 -17 15 -21 8 -3 15 -2 15 3 0 5 -7 14 -15 21 -12
10 -15 10 -15 -3z"/>
<path d="M6005 5919 c-39 -23 -65 -53 -65 -76 0 -20 23 -35 162 -105 90 -46
181 -91 203 -100 61 -26 17 -21 -118 12 -151 38 -206 55 -279 87 l-58 26 -72
-69 c-180 -170 -399 -264 -617 -264 -53 0 -120 6 -149 14 -29 7 -52 11 -52 9
0 -14 111 -161 140 -184 43 -36 116 -59 185 -59 71 0 196 33 277 74 81 40 79
32 -7 -29 -77 -56 -171 -99 -248 -115 -58 -12 -58 -12 -35 -29 132 -101 289
-181 394 -200 66 -13 127 4 218 59 65 40 208 174 255 239 40 57 39 47 -3 -39
-60 -121 -152 -237 -239 -301 l-38 -27 28 -6 c125 -26 250 -32 319 -15 58 15
88 52 158 194 98 198 145 365 147 525 1 98 -12 159 -44 195 -23 27 -356 181
-411 190 -17 3 -40 0 -51 -6z"/>
<path d="M7165 5793 c8 -15 12 -30 9 -35 -3 -4 2 -8 10 -8 12 0 14 4 7 18 -5
9 -12 25 -15 35 -3 9 -10 17 -15 17 -5 0 -4 -12 4 -27z"/>
<path d="M7267 5780 c-4 -15 0 -20 15 -20 18 0 19 2 7 18 -7 9 -14 18 -15 20
-1 1 -4 -6 -7 -18z"/>
<path d="M7186 5731 c-4 -7 -5 -15 -2 -18 9 -9 19 4 14 18 -4 11 -6 11 -12 0z"/>
<path d="M7161 5637 c1 -24 3 -26 6 -10 3 18 7 20 17 11 11 -10 10 -15 -1 -26
-8 -8 -11 -17 -8 -21 11 -10 33 29 28 49 -3 10 -13 20 -24 23 -16 4 -19 0 -18
-26z"/>
<path d="M1970 3360 l0 -640 130 0 130 0 2 421 3 421 79 -128 c43 -71 120
-194 171 -274 50 -80 100 -160 110 -177 11 -18 22 -33 25 -33 3 0 91 136 195
301 l190 302 3 -417 2 -416 130 0 130 0 0 640 0 641 -137 -3 -137 -3 -118
-195 c-175 -290 -250 -410 -257 -414 -5 -3 -101 149 -309 492 l-74 122 -134 0
-134 0 0 -640z"/>
<path d="M3610 3360 l0 -640 130 0 130 0 0 640 0 640 -130 0 -130 0 0 -640z"/>
<path d="M4210 3360 l0 -640 405 0 405 0 0 125 0 125 -275 0 -275 0 0 515 0
515 -130 0 -130 0 0 -640z"/>
<path d="M5260 3360 l0 -640 440 0 441 0 -3 123 -3 122 -302 0 -303 0 0 138 0
137 260 0 260 0 0 120 0 120 -260 0 -260 0 0 130 0 130 305 0 305 0 0 130 0
130 -440 0 -440 0 0 -640z"/>
<path d="M6410 3360 l0 -640 400 0 400 0 0 125 0 125 -270 0 -270 0 0 515 0
515 -130 0 -130 0 0 -640z"/>
<path d="M7438 3360 l-3 -640 433 0 432 0 0 120 0 120 -300 0 -300 0 0 140 0
140 250 0 250 0 0 120 0 120 -250 0 -250 0 0 130 0 130 298 2 297 3 0 125 0
125 -427 3 -428 2 -2 -640z"/>
<path d="M2105 2296 c-71 -32 -110 -110 -103 -201 7 -83 61 -145 143 -163 55
-11 114 3 156 37 34 29 34 29 15 50 -23 25 -51 29 -42 5 3 -8 2 -13 -3 -10 -5
3 -23 -1 -40 -10 -38 -19 -87 -13 -124 16 -13 11 -26 17 -29 15 -4 -5 -2 124
3 162 2 12 7 19 11 17 4 -3 18 2 30 10 33 23 100 20 132 -5 25 -20 28 -20 51
-5 21 14 24 20 15 37 -8 13 -17 18 -30 14 -10 -3 -21 -1 -25 4 -4 7 1 8 11 4
12 -4 15 -3 10 5 -18 29 -130 40 -181 18z m-34 -303 c13 -16 12 -17 -3 -4 -10
7 -18 15 -18 17 0 8 8 3 21 -13z"/>
<path d="M4313 2302 l-33 -3 0 -185 0 -184 35 0 35 0 0 125 c0 69 3 125 8 125
4 -1 24 -29 44 -63 20 -34 42 -61 48 -59 6 1 9 -2 5 -7 -8 -13 24 -63 36 -55
5 3 7 -1 4 -8 -2 -7 4 -23 15 -36 14 -17 28 -23 52 -20 l33 3 3 183 2 182 -35
0 -36 0 3 -135 c2 -74 -1 -130 -5 -126 -4 4 -16 23 -26 42 -10 19 -23 34 -29
34 -6 0 -14 4 -19 9 -5 5 -3 6 5 2 16 -10 15 0 -4 29 -9 14 -20 23 -24 20 -5
-3 -12 0 -16 6 -4 8 -3 9 4 5 20 -12 14 1 -25 56 -46 67 -42 64 -80 60z m44
-25 c4 -4 8 -15 9 -23 1 -9 -1 -13 -4 -9 -4 4 -7 12 -7 18 0 7 -12 11 -28 10
-15 -1 -27 2 -27 8 0 11 45 7 57 -4z m203 9 c0 -3 -4 -8 -10 -11 -5 -3 -10 -1
-10 4 0 6 5 11 10 11 6 0 10 -2 10 -4z m20 -41 c0 -8 -2 -15 -4 -15 -2 0 -6 7
-10 15 -3 8 -1 15 4 15 6 0 10 -7 10 -15z m-243 -127 c-3 -7 -5 -2 -5 12 0 14
2 19 5 13 2 -7 2 -19 0 -25z m1 -54 c-3 -14 -5 -12 -10 9 -3 19 -2 25 4 19 6
-6 8 -18 6 -28z m151 13 c0 -9 -2 -8 -6 1 -2 6 -10 9 -15 6 -7 -4 -8 -2 -4 5
9 13 26 5 25 -12z m-152 -83 c-3 -3 -12 -4 -19 -1 -8 3 -5 6 6 6 11 1 17 -2
13 -5z m199 -23 c-4 -5 0 -12 6 -14 8 -3 6 -6 -4 -6 -10 -1 -18 6 -18 14 0 8
5 15 11 15 5 0 8 -4 5 -9z m51 -17 c-3 -3 -12 -4 -19 -1 -8 3 -5 6 6 6 11 1
17 -2 13 -5z"/>
<path d="M4835 2299 c-61 -23 -105 -79 -83 -107 11 -15 11 -15 -3 -4 -14 10
-18 10 -23 -4 -19 -49 8 -195 34 -179 6 3 7 0 4 -9 -7 -19 12 -22 20 -3 3 6 4
3 3 -8 -1 -14 9 -25 37 -39 55 -27 116 -24 171 9 l45 26 0 74 0 75 -71 0 c-67
0 -70 -1 -67 -22 2 -19 10 -24 41 -26 35 -3 37 -5 37 -37 0 -31 -3 -35 -39
-45 -50 -13 -106 4 -134 42 -39 52 -16 162 40 187 30 14 100 14 108 1 4 -6 16
-8 28 -5 16 5 18 4 8 -3 -7 -6 -9 -12 -4 -15 6 -4 20 4 32 17 l22 24 -35 27
c-40 30 -122 42 -171 24z m100 -17 c-3 -3 -11 0 -18 7 -9 10 -8 11 6 5 10 -3
15 -9 12 -12z m-109 -24 c5 -7 2 -9 -8 -5 -9 3 -22 0 -29 -6 -11 -10 -11 -9 0
6 16 20 27 22 37 5z m179 3 c3 -5 2 -12 -3 -15 -5 -3 -9 1 -9 9 0 17 3 19 12
6z m-262 -111 c-3 -12 -8 -19 -11 -16 -5 6 5 36 12 36 2 0 2 -9 -1 -20z m-6
-52 c-3 -8 -6 -5 -6 6 -1 11 2 17 5 13 3 -3 4 -12 1 -19z m230 16 c-3 -3 -12
-4 -19 -1 -8 3 -5 6 6 6 11 1 17 -2 13 -5z m56 -1 c-7 -2 -21 -2 -30 0 -10 3
-4 5 12 5 17 0 24 -2 18 -5z m5 -102 c-1 -16 -5 -28 -9 -26 -6 5 0 55 7 55 3
0 3 -13 2 -29z m-63 -30 c-3 -5 -1 -12 4 -15 5 -4 12 -2 16 4 3 5 11 10 18 10
6 0 2 -6 -8 -14 -14 -10 -23 -11 -37 -3 -12 8 -14 13 -5 19 16 10 19 10 12 -1z
m-40 -10 c-3 -5 3 -12 12 -14 15 -4 15 -5 2 -6 -9 0 -22 6 -29 14 -10 12 -9
15 4 15 10 0 15 -4 11 -9z"/>
<path d="M5470 2303 c-61 -20 -87 -59 -76 -116 8 -44 38 -71 112 -101 48 -19
60 -29 62 -49 6 -47 -56 -58 -116 -20 -20 12 -25 12 -46 -4 -29 -24 -23 -39
26 -64 99 -51 211 -2 211 91 0 57 -47 95 -153 124 -18 5 -21 5 -10 -3 8 -5 11
-13 7 -18 -9 -8 -28 17 -22 28 3 3 1 20 -4 36 -7 23 -5 30 5 31 56 5 88 2 109
-12 23 -15 30 -13 26 7 -1 5 3 6 9 2 19 -12 31 5 19 26 -19 37 -106 60 -159
42z m30 -13 c-8 -5 -19 -10 -25 -10 -5 0 -3 5 5 10 8 5 20 10 25 10 6 0 3 -5
-5 -10z m47 4 c-3 -3 -12 -4 -19 -1 -8 3 -5 6 6 6 11 1 17 -2 13 -5z m67 -32
c3 -5 -1 -9 -9 -9 -8 0 -12 4 -9 9 3 4 7 8 9 8 2 0 6 -4 9 -8z m-169 -112 c-3
-5 -12 -10 -18 -10 -7 0 -6 4 3 10 19 12 23 12 15 0z m73 -42 c-10 -6 -10 -8
1 -8 8 0 12 -3 9 -6 -4 -3 -18 1 -33 9 l-27 14 31 0 c20 0 27 -3 19 -9z m72
-10 c0 -12 -3 -18 -7 -14 -11 10 -12 36 -2 36 5 0 9 -10 9 -22z m-30 -8 c0 -5
-2 -10 -4 -10 -3 0 -8 5 -11 10 -3 6 -1 10 4 10 6 0 11 -4 11 -10z m69 -24 c0
-7 -2 -6 -6 2 -2 6 -8 10 -12 8 -4 -3 -8 1 -8 9 0 11 4 12 14 4 7 -6 13 -17
12 -23z m-195 -61 c-4 -8 -8 -15 -10 -15 -2 0 -4 7 -4 15 0 8 4 15 10 15 5 0
7 -7 4 -15z m182 -23 c-4 -3 -14 2 -24 12 -16 18 -16 18 6 6 13 -6 21 -14 18
-18z m-195 -9 c13 -16 12 -17 -3 -4 -10 7 -18 15 -18 17 0 8 8 3 21 -13z m149
-17 c0 -2 -9 -6 -20 -9 -11 -3 -18 -1 -14 4 5 9 34 13 34 5z"/>
<path d="M7277 2296 c-21 -8 -48 -22 -59 -33 -31 -27 -58 -92 -58 -141 0 -67
47 -161 73 -145 6 3 7 1 3 -5 -11 -18 48 -42 104 -42 53 0 99 18 137 53 l22
20 -24 19 c-25 19 -25 19 -50 0 -13 -11 -22 -22 -19 -25 3 -3 -4 -3 -17 0 -14
4 -20 2 -16 -4 5 -7 -1 -9 -15 -6 -60 13 -89 26 -99 44 -5 11 -14 17 -19 14
-6 -4 -7 1 -3 11 4 11 3 15 -5 10 -6 -3 -14 -1 -18 5 -4 8 -3 9 4 5 8 -5 12 6
12 34 0 53 24 104 56 119 41 18 108 14 137 -9 25 -20 28 -20 52 -4 l26 17 -26
27 c-45 47 -126 61 -198 36z m118 -6 c4 -6 -6 -7 -27 -3 -44 8 -48 13 -10 13
17 0 34 -4 37 -10z m-78 -6 c-3 -3 -12 -4 -19 -1 -8 3 -5 6 6 6 11 1 17 -2 13
-5z m-47 -18 c-1 -5 4 -13 12 -18 10 -8 10 -9 -2 -5 -8 2 -14 10 -12 17 2 8
-3 10 -13 6 -10 -3 -14 -2 -10 5 8 12 27 8 25 -5z m93 7 c-7 -2 -19 -2 -25 0
-7 3 -2 5 12 5 14 0 19 -2 13 -5z m103 -24 c3 -6 -5 -3 -20 6 -14 10 -26 19
-26 22 0 7 39 -17 46 -28z m-221 -9 c-4 -6 -10 -8 -15 -5 -15 9 -21 -12 -10
-40 7 -17 7 -24 0 -20 -6 3 -10 14 -10 23 -1 16 -1 15 -11 -1 -5 -9 -8 -21 -4
-26 3 -5 1 -12 -4 -15 -16 -10 -3 55 15 75 18 20 50 27 39 9z m195 -5 c7 -8 9
-15 6 -15 -4 0 -14 7 -22 15 -9 8 -11 15 -6 15 5 0 15 -7 22 -15z m-223 -97
c-3 -8 -6 -5 -6 6 -1 11 2 17 5 13 3 -3 4 -12 1 -19z m-24 -73 c-3 -9 -8 -14
-10 -11 -3 3 -2 9 2 15 9 16 15 13 8 -4z m27 -55 c0 -5 -2 -10 -4 -10 -3 0 -8
5 -11 10 -3 6 -1 10 4 10 6 0 11 -4 11 -10z m237 4 c-3 -3 -12 -4 -19 -1 -8 3
-5 6 6 6 11 1 17 -2 13 -5z m-187 -29 c-9 -11 -9 -15 -1 -15 7 0 9 -5 5 -11
-4 -8 -9 -7 -15 2 -7 12 6 39 18 39 3 0 0 -7 -7 -15z m163 -5 c3 -11 1 -20 -4
-20 -5 0 -9 9 -9 20 0 11 2 20 4 20 2 0 6 -9 9 -20z m-116 -6 c-3 -3 -12 -4
-19 -1 -8 3 -5 6 6 6 11 1 17 -2 13 -5z"/>
<path d="M7653 2302 l-33 -3 0 -185 c0 -157 2 -184 15 -184 8 0 15 6 15 13 0
9 2 9 8 -1 6 -9 35 -12 107 -10 l99 3 3 33 4 32 -90 0 -91 0 0 45 0 45 80 0
80 0 0 30 0 30 -80 0 -80 0 0 45 0 45 90 0 90 0 -4 31 -3 31 -89 1 c-49 1
-104 1 -121 -1z m-10 -32 c3 -11 1 -18 -4 -14 -5 3 -9 12 -9 20 0 20 7 17 13
-6z m67 16 c0 -2 -9 -6 -20 -9 -11 -3 -20 -1 -20 4 0 5 9 9 20 9 11 0 20 -2
20 -4z m87 -2 c-3 -3 -12 -4 -19 -1 -8 3 -5 6 6 6 11 1 17 -2 13 -5z m-155
-74 c-2 -16 -6 -30 -8 -30 -2 0 -4 14 -4 30 0 17 4 30 8 30 5 0 7 -13 4 -30z
m21 -57 c-7 -2 -19 -2 -25 0 -7 3 -2 5 12 5 14 0 19 -2 13 -5z m117 -22 c0 -5
-7 -11 -15 -15 -9 -3 -15 0 -15 9 0 8 7 15 15 15 8 0 15 -4 15 -9z m47 3 c-3
-3 -12 -4 -19 -1 -8 3 -5 6 6 6 11 1 17 -2 13 -5z m-123 -19 c-4 -8 -7 -15 -9
-15 -2 0 -5 7 -9 15 -3 9 0 15 9 15 9 0 12 -6 9 -15z m-67 -17 c-3 -8 -6 -5
-6 6 -1 11 2 17 5 13 3 -3 4 -12 1 -19z m6 -88 c3 -11 1 -20 -4 -20 -5 0 -9 9
-9 20 0 11 2 20 4 20 2 0 6 -9 9 -20z m17 -40 c0 -5 -5 -10 -11 -10 -5 0 -7 5
-4 10 3 6 8 10 11 10 2 0 4 -4 4 -10z m150 -20 c0 -5 -2 -10 -4 -10 -3 0 -8 5
-11 10 -3 6 -1 10 4 10 6 0 11 -4 11 -10z"/>
<path d="M8041 2299 c-11 -5 -21 -11 -21 -15 0 -3 7 -3 16 0 9 3 12 2 9 -5 -4
-5 -15 -7 -25 -4 -14 4 -21 -2 -30 -30 -13 -38 -6 -90 10 -80 5 3 7 0 4 -8 -7
-20 36 -52 97 -72 53 -18 78 -47 60 -69 -6 -7 -8 -15 -6 -18 14 -14 -86 1
-109 16 -25 16 -28 16 -50 -1 -22 -18 -23 -20 -6 -40 27 -34 99 -54 148 -41
45 11 97 52 87 68 -10 17 -25 11 -19 -7 5 -15 4 -15 -4 -3 -8 10 -7 18 1 28 7
9 13 10 15 3 7 -20 22 -11 22 14 0 35 -21 77 -37 71 -7 -3 -12 0 -10 6 1 7
-24 21 -55 33 -72 26 -97 48 -82 73 14 20 111 24 123 4 5 -9 13 -8 29 4 18 12
20 19 12 34 -23 43 -114 63 -179 39z m159 -33 c0 -2 -9 -2 -20 1 -11 3 -20 9
-20 15 0 5 9 4 20 -2 11 -6 20 -12 20 -14z m-173 -21 c0 -8 -4 -12 -9 -9 -5 3
-6 10 -3 15 9 13 12 11 12 -6z m13 -41 c0 -8 -5 -12 -10 -9 -6 4 -8 11 -5 16
9 14 15 11 15 -7z m20 -79 c19 -14 30 -25 24 -25 -10 0 -73 49 -63 50 3 0 20
-11 39 -25z m97 -1 c-3 -3 -12 -4 -19 -1 -8 3 -5 6 6 6 11 1 17 -2 13 -5z m11
-31 c-3 -16 15 -43 28 -43 12 0 12 -3 2 -14 -11 -11 -15 -9 -25 15 -7 16 -18
29 -25 29 -9 0 -9 3 2 10 18 12 20 12 18 3z m47 -13 c3 -5 -1 -10 -10 -10 -9
0 -13 5 -10 10 3 6 8 10 10 10 2 0 7 -4 10 -10z m-199 -101 c19 -22 19 -22 -3
-10 -13 6 -23 16 -23 21 0 15 5 12 26 -11z m156 -21 c-8 -8 -9 -4 -5 13 4 13
8 18 11 10 2 -7 -1 -18 -6 -23z m-105 -4 c-3 -3 -12 -4 -19 -1 -8 3 -5 6 6 6
11 1 17 -2 13 -5z"/>
<path d="M2460 2115 l0 -185 110 0 110 0 0 35 0 35 -75 0 -75 0 0 150 0 150
-35 0 -35 0 0 -185z"/>
<path d="M2792 2118 l3 -183 123 -3 122 -3 0 36 0 35 -90 0 -90 0 0 45 0 45
80 0 80 0 0 30 0 30 -80 0 -80 0 0 45 0 45 90 0 90 0 0 30 0 30 -125 0 -125 0
2 -182z m146 15 c-10 -2 -26 -2 -35 0 -10 3 -2 5 17 5 19 0 27 -2 18 -5z m72
-13 c0 -12 -7 -20 -17 -20 -15 0 -16 2 -3 10 13 9 13 11 0 20 -13 8 -12 10 3
10 10 0 17 -8 17 -20z m-180 -170 c0 -5 -4 -10 -10 -10 -5 0 -10 5 -10 10 0 6
5 10 10 10 6 0 10 -4 10 -10z"/>
<path d="M3217 2122 c-37 -97 -67 -180 -67 -184 0 -5 16 -8 35 -8 31 0 35 3
46 40 l12 40 82 0 c80 0 83 -1 89 -25 4 -14 14 -25 24 -26 10 0 12 -3 5 -6
-25 -10 -12 -23 22 -23 19 0 35 4 35 8 0 7 -101 269 -130 340 -8 17 -18 22
-47 22 l-38 0 -68 -178z m143 158 c0 -5 -2 -10 -4 -10 -3 0 -8 5 -11 10 -3 6
-1 10 4 10 6 0 11 -4 11 -10z m-73 -42 c-3 -8 -6 -5 -6 6 -1 11 2 17 5 13 3
-3 4 -12 1 -19z m67 -86 c14 -37 26 -71 26 -75 0 -4 -25 -7 -55 -7 -30 0 -55
4 -55 9 0 4 9 30 19 57 11 27 22 57 25 67 3 9 7 17 10 17 2 0 16 -30 30 -68z
m-120 -58 c3 -8 2 -12 -4 -9 -6 3 -10 10 -10 16 0 14 7 11 14 -7z m226 -87 c0
-5 -7 -2 -15 7 -8 8 -15 20 -15 27 0 14 29 -20 30 -34z m-258 11 c-7 -7 -12
-8 -12 -2 0 14 12 26 19 19 2 -3 -1 -11 -7 -17z m5 -24 c-3 -3 -12 -4 -19 -1
-8 3 -5 6 6 6 11 1 17 -2 13 -5z m280 -50 c-3 -3 -12 -4 -19 -1 -8 3 -5 6 6 6
11 1 17 -2 13 -5z"/>
<path d="M3620 2115 l0 -185 36 0 35 0 -3 129 c-3 110 -1 128 11 118 8 -7 15
-10 17 -7 1 3 6 1 11 -4 5 -5 3 -6 -4 -2 -18 10 -16 -5 3 -33 13 -18 19 -20
26 -10 7 10 8 9 4 -5 -4 -12 3 -34 19 -58 22 -33 29 -37 41 -27 12 10 13 9 9
-4 -4 -8 -1 -18 4 -22 6 -3 9 -11 5 -16 -3 -5 2 -21 10 -34 12 -19 25 -25 51
-25 l35 0 0 185 0 185 -36 0 -35 0 2 -126 c1 -85 -3 -130 -10 -137 -9 -9 -11
-8 -6 5 9 24 -64 135 -77 116 -7 -9 -8 -8 -4 5 4 12 -9 40 -34 78 -37 53 -44
59 -75 59 l-35 0 0 -185z m24 160 c-4 -8 -8 -15 -10 -15 -2 0 -4 7 -4 15 0 8
4 15 10 15 5 0 7 -7 4 -15z m58 -9 c13 -18 14 -23 2 -23 -8 0 -12 3 -9 5 3 3
-2 14 -12 24 -9 10 -12 18 -7 18 5 0 17 -11 26 -24z m185 -28 c-3 -8 -6 -5 -6
6 -1 11 2 17 5 13 3 -3 4 -12 1 -19z m-250 -25 c-3 -10 -5 -4 -5 12 0 17 2 24
5 18 2 -7 2 -21 0 -30z m103 -9 c0 -2 -11 -3 -24 -2 -14 1 -23 5 -20 9 4 7 44
0 44 -7z m-93 -176 c-3 -7 -5 -2 -5 12 0 14 2 19 5 13 2 -7 2 -19 0 -25z m3
-48 c0 -5 -2 -10 -4 -10 -3 0 -8 5 -11 10 -3 6 -1 10 4 10 6 0 11 -4 11 -10z
m0 -30 c0 -5 -2 -10 -4 -10 -3 0 -8 5 -11 10 -3 6 -1 10 4 10 6 0 11 -4 11
-10z"/>
<path d="M4080 2115 l0 -185 35 0 34 0 0 185 -1 185 -34 0 -34 0 0 -185z m17
143 c-3 -7 -5 -2 -5 12 0 14 2 19 5 13 2 -7 2 -19 0 -25z m28 -178 c3 -6 -1
-7 -9 -4 -18 7 -21 14 -7 14 6 0 13 -4 16 -10z"/>
<path d="M5760 2115 l0 -185 123 0 124 0 1 35 1 35 -89 0 -90 0 0 45 0 45 80
0 80 0 0 30 0 30 -80 0 -80 0 0 46 c0 33 -3 43 -12 38 -7 -4 -10 -4 -6 1 4 4
50 7 103 6 l95 -2 0 30 0 31 -125 0 -125 0 0 -185z m160 165 c0 -5 -2 -10 -4
-10 -3 0 -8 5 -11 10 -3 6 -1 10 4 10 6 0 11 -4 11 -10z m-133 -82 c-3 -7 -5
-2 -5 12 0 14 2 19 5 13 2 -7 2 -19 0 -25z m43 -74 c0 -8 -7 -22 -15 -30 -13
-14 -15 -14 -15 -1 0 9 6 18 13 20 9 4 8 8 -3 16 -13 9 -13 11 3 11 9 0 17 -7
17 -16z m-13 -86 c-3 -8 -6 -5 -6 6 -1 11 2 17 5 13 3 -3 4 -12 1 -19z"/>
<path d="M6147 2218 c1 -46 2 -129 2 -185 l1 -103 30 0 c24 0 30 4 31 23 4
117 2 112 31 115 23 3 32 -6 72 -67 43 -67 48 -71 82 -71 l36 0 -16 25 c-9 14
-23 36 -32 50 -9 14 -20 23 -24 20 -5 -3 -12 0 -16 6 -4 8 -3 9 4 5 16 -10 15
7 0 22 -10 10 -16 8 -30 -10 -10 -13 -18 -18 -18 -11 0 6 6 18 13 25 7 7 12
19 11 26 -1 6 -2 16 -3 21 0 6 -25 11 -53 13 l-53 3 -3 59 -4 58 66 -4 c50 -3
63 -1 55 8 -7 9 -4 16 13 24 22 11 22 10 4 -4 -11 -9 -15 -16 -10 -16 17 0 16
-96 -1 -110 -11 -9 -12 -16 -4 -26 6 -7 8 -18 4 -24 -9 -14 1 -13 34 5 57 29
66 124 16 174 -24 24 -33 26 -133 29 l-107 4 2 -84z m40 66 c-3 -3 -12 -4 -19
-1 -8 3 -5 6 6 6 11 1 17 -2 13 -5z m18 -34 c-3 -5 -10 -10 -16 -10 -5 0 -9 5
-9 10 0 6 7 10 16 10 8 0 12 -4 9 -10z m193 -25 c-3 -3 -9 2 -12 12 -6 14 -5
15 5 6 7 -7 10 -15 7 -18z m4 -25 c6 0 9 -3 6 -6 -9 -8 -48 14 -48 27 0 6 7 3
16 -5 8 -9 20 -16 26 -16z m-27 -20 c3 -5 1 -10 -4 -10 -6 0 -11 5 -11 10 0 6
2 10 4 10 3 0 8 -4 11 -10z m-193 -84 c3 -14 0 -27 -7 -30 -7 -2 -12 7 -12 25
0 35 13 38 19 5z m-10 -71 c3 -14 2 -27 -1 -30 -4 -2 -8 10 -9 26 -3 36 4 38
10 4z m28 15 c0 -5 -2 -10 -4 -10 -3 0 -8 5 -11 10 -3 6 -1 10 4 10 6 0 11 -4
11 -10z m157 -57 c1 -22 -1 -24 -8 -10 -6 9 -7 22 -4 27 9 14 10 13 12 -17z
m-190 -35 c-3 -7 -5 -2 -5 12 0 14 2 19 5 13 2 -7 2 -19 0 -25z"/>
<path d="M6521 2270 c6 -17 16 -27 22 -23 6 3 7 1 3 -6 -4 -6 4 -45 19 -86 21
-57 31 -72 44 -68 13 4 13 3 2 -5 -11 -8 -9 -22 14 -81 26 -70 28 -72 58 -69
30 3 33 8 79 128 26 69 46 133 44 143 -2 9 0 15 4 12 4 -3 15 15 23 40 l16 45
-33 0 -33 0 -47 -127 c-25 -71 -46 -139 -46 -153 -1 -14 -18 25 -39 85 -67
193 -68 195 -107 195 -32 0 -33 -1 -23 -30z m29 16 c0 -3 -4 -8 -10 -11 -5 -3
-10 -1 -10 4 0 6 5 11 10 11 6 0 10 -2 10 -4z m280 0 c0 -3 -4 -8 -10 -11 -5
-3 -10 -1 -10 4 0 6 5 11 10 11 6 0 10 -2 10 -4z m-243 -48 c-3 -8 -6 -5 -6 6
-1 11 2 17 5 13 3 -3 4 -12 1 -19z m207 6 c3 -8 2 -12 -4 -9 -6 3 -10 10 -10
16 0 14 7 11 14 -7z m-214 -59 c0 -5 -5 -3 -10 5 -5 8 -10 20 -10 25 0 6 5 3
10 -5 5 -8 10 -19 10 -25z m30 4 c0 -6 -4 -7 -10 -4 -5 3 -10 11 -10 16 0 6 5
7 10 4 6 -3 10 -11 10 -16z m174 -22 c11 11 -16 -61 -29 -77 -7 -8 -10 -22 -8
-30 4 -13 3 -13 -5 -1 -7 10 -6 21 1 34 9 15 9 21 -1 24 -6 3 -10 9 -7 13 3 5
12 7 20 3 17 -6 21 22 5 32 -5 3 -10 12 -10 18 0 7 6 4 14 -5 7 -10 16 -15 20
-11z m-186 -48 c-3 -8 -7 -3 -11 10 -4 17 -3 21 5 13 5 -5 8 -16 6 -23z m52
-39 c0 -5 -5 -10 -11 -10 -5 0 -7 5 -4 10 3 6 8 10 11 10 2 0 4 -4 4 -10z m10
-40 c0 -5 -4 -10 -10 -10 -5 0 -10 5 -10 10 0 6 5 10 10 10 6 0 10 -4 10 -10z
m50 -80 c0 -5 -5 -10 -11 -10 -5 0 -7 5 -4 10 3 6 8 10 11 10 2 0 4 -4 4 -10z"/>
<path d="M6960 2115 l0 -185 35 0 35 0 0 185 0 185 -35 0 -35 0 0 -185z m57
138 c-3 -10 -5 -4 -5 12 0 17 2 24 5 18 2 -7 2 -21 0 -30z m-35 2 c3 -13 1
-22 -3 -19 -9 5 -13 44 -5 44 2 0 6 -11 8 -25z m33 -55 c3 -5 1 -10 -4 -10 -6
0 -11 5 -11 10 0 6 2 10 4 10 3 0 8 -4 11 -10z m5 -115 c0 -41 -3 -75 -7 -75
-5 0 -8 15 -7 33 3 98 4 117 9 117 3 0 5 -34 5 -75z m-3 -137 c-3 -7 -5 -2 -5
12 0 14 2 19 5 13 2 -7 2 -19 0 -25z"/>
</g>
</svg>
